@startuml

abstract Mediator {
    + register(Colleague colleague): void
    + relay(Colleague colleague): void
}
abstract Colleague {
    # mediator: Mediator
    + setMediator(Mediator mediator)
    + receive(): void
    + send(): void
}

class ConcreteMediator extends Mediator {
    - colleagues: List<Colleague>
}

class ConcreteColleagueA extends Colleague {
}
class ConcreteColleagueB extends Colleague {
}

ConcreteMediator o-- Colleague
Colleague o-- Mediator




@enduml